<?xml version="1.0" encoding="UTF-8"?>
<svg id="Layer_1" data-name="Layer 1" xmlns="http://www.w3.org/2000/svg" viewBox="0 0 346.6 196.98">
  <defs>
    <style>
      .cls-1 {
        fill: #f27232;
      }

      .cls-2 {
        fill: #ec1c24;
      }

      .cls-3 {
        fill: #f19b32;
      }

      .cls-4 {
        fill: #83161a;
      }

      .cls-5 {
        fill: #bf2027;
      }

      .cls-6 {
        fill: #acd696;
      }

      .cls-7 {
        fill: #12723a;
      }

      .cls-8 {
        fill: #1f9146;
      }

      .cls-9 {
        fill: #1c8347;
      }

      .cls-10 {
        fill: #981b1f;
      }

      .cls-11 {
        fill: #464e54;
      }

      .cls-12 {
        fill: #87c774;
      }

      .cls-13 {
        fill: #63bb4e;
      }

      .cls-14 {
        fill: #32b34a;
      }
    </style>
  </defs>
  <g>
    <path class="cls-11" d="m0,158.87h5.6v37.38H0v-37.38Z"/>
    <path class="cls-11" d="m30.76,167.56v28.69h-5.6v-37.38h5.77l20.34,28.02v-28.02h5.6v37.38h-5.44l-20.68-28.69Z"/>
    <path class="cls-11" d="m76.38,158.87h25.11v4.93h-19.5v10.93h19.11v4.93h-19.11v16.59h-5.6v-37.38Z"/>
    <path class="cls-11" d="m118.75,158.87h5.6v37.38h-5.6v-37.38Z"/>
    <path class="cls-11" d="m149.51,167.56v28.69h-5.6v-37.38h5.77l20.34,28.02v-28.02h5.6v37.38h-5.44l-20.68-28.69Z"/>
    <path class="cls-11" d="m195.12,158.87h5.6v37.38h-5.6v-37.38Z"/>
    <path class="cls-14" d="m238.11,158.26c7.01,0,11.66,3.19,14.79,7.4l-4.54,2.63c-2.13-2.86-5.88-5.04-10.26-5.04-7.79,0-13.62,5.94-13.62,14.35s5.83,14.4,13.62,14.4c4.15,0,7.68-2.02,9.47-3.7v-6.72h-11.99v-4.93h17.6v13.73c-3.59,3.98-8.74,6.61-15.07,6.61-10.7,0-19.39-7.73-19.39-19.39s8.69-19.33,19.39-19.33Z"/>
    <path class="cls-14" d="m271.56,158.87h25.11v4.93h-19.5v10.93h19.11v4.93h-19.11v11.66h19.5v4.93h-25.11v-37.38Z"/>
    <path class="cls-14" d="m320.48,167.56v28.69h-5.6v-37.38h5.77l20.34,28.02v-28.02h5.6v37.38h-5.44l-20.68-28.69Z"/>
  </g>
  <g>
    <path class="cls-12" d="m93.46,32.34l-8.2-5.98c-.94,5.45-1.69,9.91-1.97,11.83,2.93-2.57,6.38-4.58,10.17-5.84Z"/>
    <path class="cls-6" d="m49.35,32.37l31.92,6.03,1.48.28c.18-.17.36-.33.55-.5.28-1.92,1.04-6.38,1.97-11.83,1.35-7.83,3.08-17.69,4.34-24.89-17.52,3.93-32.18,15.45-40.26,30.9Z"/>
    <path class="cls-12" d="m81.27,38.4l-31.92-6.03c-.05.09-.1.18-.15.27-4.23,8.19-6.63,17.48-6.63,27.3,0,4.1.42,8.11,1.21,11.98l36.18-30.31c.33-.4.67-.79,1.02-1.18.45-.49.91-.96,1.39-1.41.12-.12.25-.24.37-.35l-1.48-.28Z"/>
    <path class="cls-5" d="m82.59,81.07l-.04-.04-.02.05.06-.02Z"/>
    <path class="cls-8" d="m127.63,114.44l.03-.09-40-29.46c-1.64-.98-3.18-2.12-4.59-3.38l-.53-.39-9.98,30.62c8.91,5.18,19.28,8.15,30.32,8.15,8.59,0,17.04-2.06,25.05-5.34l-.17-.13c-.08.01-.12.02-.12.02Z"/>
    <path class="cls-10" d="m127.92,114.55c.22-.09.44-.19.66-.28-.4.07-.69.12-.83.15l.17.13Z"/>
    <path class="cls-9" d="m140.09,70.69c-11.32,9.57-25.18,18.4-37.22,18.4-2.14,0-4.23-.23-6.24-.66-3.22-.69-6.24-1.89-8.98-3.53l40,29.46,1.17-4.08,11.37-39.56s-.07-.02-.1-.03Z"/>
    <path class="cls-10" d="m82.53,81.12l.53.39c-.16-.14-.31-.29-.47-.44l-.06.02v.03Z"/>
    <path class="cls-4" d="m127.74,114.42l-.09-.07-.03.09s.04,0,.12-.02Z"/>
    <path class="cls-7" d="m174.37,79.45c-4.78-1.25-24.57-6.29-33.17-8.48-.36-.09-.7-.18-1.02-.26l-11.37,39.56-1.17,4.08.09.07c.15-.03.43-.08.83-.15,1.24-.52,2.48-1.07,3.7-1.65.08-.04.16-.08.23-.11,11.54-5.5,20.87-12.67,29.35-20.16,7.36-7.02,8.93-9.04,12.53-12.79v-.11Z"/>
    <path class="cls-5" d="m140.23,70.56s-.1.08-.14.12c.03,0,.07.02.1.03l.04-.15Z"/>
    <path class="cls-8" d="m174.25,78.61l-5.28-37.09h-.01c-7.06,7.65-18.47,20.79-27.01,27.57-.15.12-.28.24-.42.37-.43.37-.86.74-1.3,1.11l-.04.15c.32.08.66.17,1.02.26,8.6,2.19,28.38,7.23,33.17,8.48l-.12-.85Z"/>
    <path class="cls-10" d="m174.39,79.56s.05-.05.08-.08c-.03,0-.06-.02-.09-.02v.11Z"/>
    <path class="cls-10" d="m174.37,79.45s.06.02.09.02c.2-.21.41-.42.61-.63l-.82-.24.12.85Z"/>
    <path class="cls-12" d="m260.42,83.22c-3.06,2.28-6.58,3.99-10.4,4.95l-.39.19,8.82,9.6c.84-6.08,1.58-11.56,1.99-14.74h-.02Z"/>
    <path class="cls-3" d="m260.52,83.14s-.05.04-.08.06c0,0,0,0,0,0l.12-.06h-.04Z"/>
    <path class="cls-6" d="m260.66,83.18l-.11-.03-.12.06c-.41,3.18-1.15,8.67-1.99,14.74-.96,6.95-2.03,14.65-2.85,20.55,15.86-3.45,29.41-13.12,37.91-26.3l-32.84-9.02Z"/>
    <path class="cls-12" d="m301.59,47.07l-37.09,32.47c-.5.54-1.02,1.05-1.55,1.55-.77.72-1.59,1.41-2.44,2.05h.04s.1-.03.1-.03v.08s32.85,9.02,32.85,9.02c.08-.12.15-.25.23-.37,5.86-9.24,9.26-20.18,9.26-31.89,0-4.42-.49-8.73-1.4-12.88Z"/>
    <polygon class="cls-1" points="260.65 83.11 260.56 83.15 260.66 83.18 260.65 83.11"/>
    <path class="cls-8" d="m242.7,0c-8.55,0-16.95,2.04-24.92,5.29l39.25,29.19c2.18,1.2,4.19,2.68,5.99,4.37l10.01-30.7c-8.91-5.18-19.27-8.15-30.32-8.15Z"/>
    <path class="cls-9" d="m217.78,5.29c-.27.11-.54.22-.81.33.63-.11.97-.18.97-.18l-.88,3.29-10.59,39.63c11.14-9.24,24.54-17.56,36.22-17.56,3.08,0,6.05.47,8.85,1.34,1.92.6,3.75,1.39,5.48,2.34l-39.25-29.19Z"/>
    <polygon class="cls-4" points="168.97 41.51 168.96 41.52 168.97 41.52 168.97 41.51"/>
    <path class="cls-9" d="m170.78,39.54c-.34.37-.7.76-1.07,1.16-.24.26-.49.53-.74.8h0s5.28,37.1,5.28,37.1l.82.24c.11-.12.22-.23.33-.34,7.17-7.43,13.45-13.6,18.43-18.35-.01-.02-.03-.03-.05-.05,2.88-2.95,6.22-6.17,9.86-9.34.11-.1.22-.19.33-.29l-33.21-10.93Z"/>
    <path class="cls-7" d="m216.97,5.63c-.91.38-1.82.79-2.72,1.2-.4.18-.79.37-1.18.55-16.41,7.82-30.67,20.33-40.11,29.93-.02-.02-.04-.04-.06-.06-.58.63-1.3,1.42-2.11,2.3l33.21,10.93s.04-.03.06-.05c.8-.69,1.61-1.38,2.43-2.06l10.59-39.63.88-3.29s-.35.06-.97.18Z"/>
    <path class="cls-14" d="m299.81,40.69c-4.23-12.37-12.42-22.93-23.06-30.2-1.21-.83-2.45-1.61-3.72-2.35l-10.01,30.7s.08.07.12.11c.16.15.32.3.47.45l31.42,6.19,6.52,1.28c-.47-2.11-1.05-4.18-1.74-6.19Z"/>
    <path class="cls-13" d="m264.51,79.54l37.09-32.47s0-.04-.01-.07c0-.04-.02-.08-.03-.11l-6.52-1.28-31.42-6.19c1.53,1.52,2.88,3.2,4.04,5.02,2.87,4.5,4.54,9.81,4.54,15.51,0,4.14-.88,8.07-2.46,11.64-1.3,2.93-3.07,5.62-5.22,7.96Z"/>
    <polygon class="cls-13" points="252.13 99.74 233.7 118.17 250.5 118.64 252.13 99.74"/>
    <path class="cls-14" d="m247.91,92.03c-.46-.18-6.45-2-12.71-3.88-1.54-.37-3.09-.84-4.63-1.39-5.43-1.63-10.04-3.01-10.04-3.01l15.15,20.66,12.23-12.37Z"/>
    <polygon class="cls-13" points="213.06 89.59 207.5 100.52 223.65 97.82 213.06 89.59"/>
    <polygon class="cls-8" points="224.59 102.07 213.39 109.54 231.36 117.47 224.59 102.07"/>
    <polygon class="cls-14" points="201.62 85.72 192.07 87.37 203.28 94.08 201.62 85.72"/>
    <path class="cls-12" d="m215.85,79.07c-2.93-1.96-5.77-4.1-8.47-6.31l2.19,9.54c.75.07,4.7-2.28,6.28-3.23Z"/>
    <path class="cls-14" d="m82.55,81.03c-.09-.08-.18-.16-.26-.25-.15-.15-.3-.29-.45-.44l-31.06-6.6-6.93-1.47c.49,2.34,1.12,4.62,1.88,6.85,4.2,12.34,12.34,22.89,22.93,30.16,1.26.87,2.55,1.69,3.88,2.46l9.98-30.62-.03-.02h.03s.02-.06.02-.06Z"/>
    <polygon class="cls-2" points="82.5 81.1 82.53 81.12 82.54 81.09 82.5 81.1"/>
    <path class="cls-13" d="m77.84,75.33c-2.82-4.47-4.46-9.74-4.46-15.39,0-5.27,1.43-10.22,3.92-14.49.79-1.35,1.67-2.63,2.66-3.83l-36.18,30.31c.01.07.03.13.04.2,0,.05.02.09.03.14l6.93,1.47,31.06,6.6c-1.51-1.52-2.85-3.2-4-5.01Z"/>
    <path class="cls-6" d="m198.75,73.19c-1.87,2.03-3.87,4.21-5.88,6.4,1.97,1.06,6.09,2.64,6.09,2.64l-.21-9.04Z"/>
    <polygon class="cls-13" points="92.8 21.38 111.24 2.94 94.43 2.48 92.8 21.38"/>
    <path class="cls-14" d="m123.81,37.19c.38.11.6.18.6.18l-15.15-20.66-12.23,12.37,26.78,8.1Z"/>
    <polygon class="cls-13" points="132.57 32.93 138.14 22 121.98 24.7 132.57 32.93"/>
    <polygon class="cls-8" points="120.34 19.05 129.38 12.45 113.57 3.64 120.34 19.05"/>
    <polygon class="cls-14" points="143.31 35.39 152.87 33.75 141.66 27.04 143.31 35.39"/>
    <path class="cls-12" d="m130.39,41.27c2.29,1.56,4.52,3.22,6.68,4.95l-1.7-7.4c-.58-.05-3.14,1.37-4.98,2.45Z"/>
    <path class="cls-6" d="m146.16,46.57l5.12-5.45c-2.11-1.01-5.29-2.24-5.29-2.24l.18,7.69Z"/>
  </g>
</svg>