<?xml version="1.0" encoding="UTF-8"?>
<svg id="Layer_1" data-name="Layer 1" xmlns="http://www.w3.org/2000/svg" viewBox="0 0 346.76 196.71">
  <defs>
    <style>
      .cls-1 {
        fill: #03b1b0;
      }

      .cls-2 {
        fill: #00bcb2;
      }

      .cls-3 {
        fill: #009388;
      }

      .cls-4 {
        fill: #f27232;
      }

      .cls-5 {
        fill: #ec1c24;
      }

      .cls-6 {
        fill: #ef4c20;
      }

      .cls-7 {
        fill: #fdb839;
      }

      .cls-8 {
        fill: #f19b32;
      }

      .cls-9 {
        fill: #ff6e41;
      }

      .cls-10 {
        fill: #ff8f43;
      }

      .cls-11 {
        fill: #bf2027;
      }

      .cls-12 {
        fill: #10608c;
      }

      .cls-13 {
        fill: #13bcaf;
      }

      .cls-14 {
        fill: #42e8e0;
      }

      .cls-15 {
        fill: #981b1f;
      }

      .cls-16 {
        fill: #2873a5;
      }

      .cls-17 {
        fill: #484f54;
      }

      .cls-18 {
        fill: #379ad1;
      }

      .cls-19 {
        fill: #2fd1cd;
      }

      .cls-20 {
        fill: #58c8f9;
      }
    </style>
  </defs>
  <g>
    <path class="cls-16" d="m93.91,32.37l-8.21-5.99c-.94,5.45-1.69,9.92-1.97,11.84,2.93-2.58,6.39-4.58,10.18-5.85Z"/>
    <path class="cls-18" d="m49.74,32.4l31.95,6.04,1.48.28c.18-.17.36-.34.55-.5.29-1.92,1.04-6.39,1.97-11.84,1.35-7.84,3.08-17.71,4.35-24.91-17.54,3.93-32.21,15.47-40.3,30.93Z"/>
    <path class="cls-16" d="m81.7,38.44l-31.95-6.04c-.05.09-.1.18-.15.27-4.24,8.2-6.63,17.49-6.63,27.33,0,4.11.42,8.12,1.21,12l36.22-30.34c.33-.4.67-.79,1.02-1.18.45-.49.91-.96,1.39-1.42.12-.12.25-.24.37-.35l-1.48-.28Z"/>
    <path class="cls-11" d="m83.02,81.15s-.03-.02-.04-.04l-.02.05.06-.02Z"/>
    <path class="cls-15" d="m128.4,114.66c.22-.09.44-.19.66-.28-.4.07-.69.12-.83.15l.17.13Z"/>
    <path class="cls-7" d="m140.58,70.76c-11.34,9.58-25.21,18.41-37.25,18.41-2.14,0-4.23-.23-6.25-.66-3.22-.69-6.25-1.89-8.99-3.53l40.04,29.49,1.17-4.08,11.38-39.6s-.07-.02-.1-.03Z"/>
    <path class="cls-15" d="m82.96,81.2l.53.39c-.16-.14-.31-.29-.47-.44l-.06.02v.03Z"/>
    <path class="cls-18" d="m128.22,114.53l-.09-.07-40.04-29.49c-1.64-.98-3.18-2.12-4.6-3.39l-.53-.39-9.99,30.65c8.92,5.18,19.3,8.16,30.35,8.16,8.6,0,17.05-2.06,25.07-5.35l-.17-.13Z"/>
    <path class="cls-10" d="m174.9,79.53c-4.79-1.25-24.59-6.3-33.2-8.49-.36-.09-.7-.18-1.02-.26l-11.38,39.6-1.17,4.08.25.18c.23-.09.31-.13.67-.27,1.22-.51,3.86-1.72,3.94-1.76,10.39-6.13,19.43-11.3,29.3-20.14,6.35-5.69,9.56-9.65,12.63-12.84v-.11Z"/>
    <path class="cls-11" d="m140.72,70.64s-.1.08-.14.12c.03,0,.07.02.1.03l.04-.15Z"/>
    <path class="cls-9" d="m174.78,78.68l-3.49-39.09c-7.07,7.66-11.17,11.65-30.57,31.04l-.04.15c.32.08.66.17,1.02.26,8.61,2.19,28.41,7.24,33.2,8.49l-.12-.85Z"/>
    <path class="cls-15" d="m174.91,79.64s.05-.05.08-.08c-.03,0-.06-.02-.09-.02v.11Z"/>
    <path class="cls-1" d="m261.03,83.31c-3.06,2.28-6.59,3.99-10.41,4.96l-.39.19,8.83,9.61c.84-6.08,1.58-11.57,1.99-14.76h-.02Z"/>
    <path class="cls-8" d="m261.13,83.23s-.05.04-.08.06h0s.12-.05.12-.05h-.04Z"/>
    <path class="cls-19" d="m261.28,83.27l-.11-.03-.12.06c-.41,3.19-1.15,8.68-1.99,14.76-.96,6.95-2.03,14.67-2.86,20.57,15.88-3.45,29.44-13.13,37.94-26.33l-32.87-9.03Z"/>
    <path class="cls-2" d="m302.25,47.12l-37.12,32.5c-.5.54-1.02,1.05-1.55,1.55-.78.73-1.59,1.41-2.44,2.05h.04s.1-.03.1-.03v.08s32.88,9.03,32.88,9.03c.08-.12.15-.25.23-.37,5.87-9.25,9.27-20.2,9.27-31.92,0-4.42-.49-8.73-1.41-12.89Z"/>
    <polygon class="cls-4" points="261.27 83.19 261.17 83.24 261.28 83.27 261.27 83.19"/>
    <path class="cls-7" d="m243.29,0c-8.56,0-16.97,2.04-24.95,5.3l39.29,29.22c2.19,1.21,4.2,2.68,6,4.37l10.02-30.74c-8.92-5.18-19.29-8.16-30.35-8.16Z"/>
    <path class="cls-10" d="m218.35,5.3c-.27.11-.54.22-.81.33.63-.11.98-.18.98-.18l-.88,3.29-10.6,39.67c11.15-9.25,24.57-17.58,36.26-17.58,3.08,0,6.06.47,8.85,1.34,1.92.6,3.75,1.39,5.48,2.34l-39.29-29.22Z"/>
    <path class="cls-6" d="m171.3,39.59c-.34.37,0,.05,0,.05l3.47,39.05.12.85s.06.02.09.02c.2-.21.41-.42.61-.63.11-.12.22-.23.33-.35,7.18-7.44,13.47-13.62,18.45-18.36-.01-.02-.03-.03-.05-.05,2.88-2.96,6.23-6.17,9.87-9.35.11-.1.22-.19.33-.29l-33.25-10.94Z"/>
    <path class="cls-9" d="m217.54,5.63c-.91.38-1.82.79-2.73,1.2-.4.18-.79.37-1.19.55-16.43,7.83-30.15,20.66-42.33,32.2l33.25,10.94s.04-.03.06-.05c.8-.69,1.61-1.38,2.43-2.06l10.6-39.67.88-3.29s-.35.06-.98.18Z"/>
    <path class="cls-2" d="m300.46,40.74c-4.23-12.38-12.44-22.96-23.09-30.23-1.21-.83-2.45-1.61-3.72-2.35l-10.02,30.74s.08.07.12.11c.16.15.32.3.48.45l31.45,6.19,6.53,1.29c-.47-2.11-1.06-4.18-1.75-6.2Z"/>
    <path class="cls-3" d="m265.12,79.56l37.12-32.5s0-.04-.01-.07c0-.04-.02-.08-.03-.11l-6.53-1.29-31.45-6.19c1.53,1.52,2.88,3.2,4.04,5.02,2.88,4.5,4.55,9.82,4.55,15.53,0,4.14-.88,8.08-2.47,11.65-1.3,2.94-3.07,5.62-5.23,7.96Z"/>
    <polygon class="cls-19" points="252.74 99.84 234.28 118.29 251.1 118.76 252.74 99.84"/>
    <path class="cls-19" d="m248.51,92.12c-.46-.18-6.45-2-12.72-3.89-1.54-.37-3.09-.84-4.64-1.39-5.44-1.63-10.05-3.01-10.05-3.01l15.16,20.68,12.24-12.39Z"/>
    <polygon class="cls-7" points="213.63 89.68 208.06 100.62 224.23 97.92 213.63 89.68"/>
    <polygon class="cls-14" points="225.17 102.17 213.96 109.65 231.95 117.59 225.17 102.17"/>
    <polygon class="cls-9" points="202.17 85.81 192.61 87.46 203.83 94.17 202.17 85.81"/>
    <path class="cls-9" d="m216.41,79.15c-2.93-1.96-5.77-4.1-8.48-6.32l2.2,9.55c.75.07,4.71-2.28,6.29-3.24Z"/>
    <path class="cls-16" d="m82.99,81.12c-.09-.08-.18-.16-.26-.25-.15-.15-.3-.29-.45-.44l-31.09-6.61-6.93-1.47c.49,2.34,1.12,4.63,1.88,6.86,4.21,12.35,12.36,22.91,22.95,30.19,1.26.87,2.56,1.69,3.89,2.46l9.99-30.65-.03-.02h.03s.02-.06.02-.06Z"/>
    <polygon class="cls-5" points="82.93 81.18 82.96 81.2 82.97 81.17 82.93 81.18"/>
    <path class="cls-12" d="m78.27,75.41c-2.83-4.47-4.47-9.75-4.47-15.4,0-5.28,1.43-10.23,3.93-14.51.79-1.35,1.68-2.63,2.66-3.84l-36.22,30.34c.01.07.03.13.04.2,0,.05.02.09.03.14l6.93,1.47,31.09,6.61c-1.51-1.52-2.85-3.2-4-5.02Z"/>
    <path class="cls-6" d="m199.3,73.26c-1.87,2.03-3.87,4.21-5.88,6.41,1.97,1.06,6.09,2.65,6.09,2.65l-.21-9.05Z"/>
    <polygon class="cls-18" points="93.24 21.4 111.7 2.95 94.88 2.48 93.24 21.4"/>
    <path class="cls-18" d="m124.28,37.23c.38.11.6.18.6.18l-15.16-20.68-12.24,12.39,26.81,8.11Z"/>
    <polygon class="cls-7" points="133.05 32.96 138.62 22.02 122.46 24.72 133.05 32.96"/>
    <polygon class="cls-20" points="120.81 19.07 129.86 12.46 114.03 3.65 120.81 19.07"/>
    <polygon class="cls-9" points="143.81 35.43 153.37 33.78 142.15 27.07 143.81 35.43"/>
    <path class="cls-9" d="m130.87,41.31c2.29,1.56,4.53,3.23,6.68,4.95l-1.7-7.41c-.59-.05-3.14,1.38-4.98,2.46Z"/>
    <path class="cls-6" d="m146.65,46.62l5.12-5.45c-2.11-1.02-5.3-2.24-5.3-2.24l.18,7.7Z"/>
  </g>
  <g>
    <g>
      <path class="cls-17" d="m0,158.27h5.6v37.38H0v-37.38Z"/>
      <path class="cls-17" d="m30.76,166.95v28.69h-5.6v-37.38h5.77l20.34,28.02v-28.02h5.6v37.38h-5.44l-20.68-28.69Z"/>
      <path class="cls-17" d="m76.38,158.27h25.11v4.93h-19.5v10.93h19.11v4.93h-19.11v16.59h-5.6v-37.38Z"/>
      <path class="cls-17" d="m118.75,158.27h5.6v37.38h-5.6v-37.38Z"/>
      <path class="cls-17" d="m149.51,166.95v28.69h-5.6v-37.38h5.77l20.34,28.02v-28.02h5.6v37.38h-5.44l-20.68-28.69Z"/>
      <path class="cls-17" d="m195.12,158.27h5.6v37.38h-5.6v-37.38Z"/>
    </g>
    <path class="cls-13" d="m238.27,157.98c7.01,0,11.66,3.19,14.79,7.4l-4.54,2.63c-2.13-2.86-5.88-5.04-10.26-5.04-7.79,0-13.62,5.94-13.62,14.35s5.83,14.4,13.62,14.4c4.15,0,7.68-2.02,9.47-3.7v-6.72h-11.99v-4.93h17.6v13.73c-3.59,3.98-8.74,6.61-15.07,6.61-10.7,0-19.39-7.73-19.39-19.39s8.69-19.33,19.39-19.33Z"/>
    <path class="cls-13" d="m271.73,158.6h25.11v4.93h-19.5v10.93h19.11v4.93h-19.11v11.66h19.5v4.93h-25.11v-37.38Z"/>
    <path class="cls-13" d="m320.65,167.29v28.69h-5.6v-37.38h5.77l20.34,28.02v-28.02h5.6v37.38h-5.44l-20.68-28.69Z"/>
  </g>
</svg>