<?xml version="1.0" encoding="UTF-8"?>
<svg xmlns="http://www.w3.org/2000/svg" viewBox="0 0 444.64 93.24">
  <defs>
    <style>
      .cls-1 {
        fill: #e87400;
      }

      .cls-1, .cls-2 {
        fill-rule: evenodd;
      }
    </style>
  </defs>
  <g id="Layer_2" data-name="Layer 2">
    <path class="cls-1" d="m45.82,60.42h0ZM4.27,28.67l6.39-8.61c3.39,21.47,8.85,35.24,24.66,50.48l10.49-10.12c5.64-6.41,10.02-13.5,12.87-21.72l8.3,2.5c-2.41,8.21-6.17,15.46-11.63,22.13-6.58,8.06-12.42,11.69-20.31,17.87-11.36-8.57-19.91-19.12-25.48-32.37-2.67-6.34-4.42-13.59-5.29-20.17h0Zm-4.27-.98c.83,7.86,2.82,15.5,5.86,22.7,5.54,13.15,14.49,24.69,25.86,33.34h-.01s3.38,2.54,3.38,2.54h.01s10.23,6.96,10.23,6.96l2.66-1.64c20.95-12.95,34.76-35,37.7-59.35h.01s.48-4.01.48-4.01h-.01s.12-1.04.12-1.04l-7.52-13.02c-13.25-2.95-23.81-7.68-35.49-14.17C26.61,8.84,22.78,11.11,10.15,13.77L0,27.69h0Zm14.34-10.72c.17-.04,1.23-.31,1.4-.35,9.78-2.64,18.93-7.34,27.52-12.02,10.36,5.68,20.38,10.02,31.98,12.89l5.64,9.77c-14.29-2.81-24.33-6.16-37.53-12.87h-.02c-6.35,3.23-11.99,6.21-18.91,8.35,2.86,15.11,6.56,24.46,17.13,36.39l-6.1,5.97c-13.76-14.38-18.05-25.46-21.11-48.13h0Zm29.19,11.51l-1.13.53c-3.26,1.52-6.14,2.87-11.04,4.69-.88-2.67-1.63-5.42-2.26-8.24l14.26-6.55c13.37,6.69,23.96,9.94,38.36,12.62-2.95,23.8-15.81,44.28-36.37,56.98l-6.93-4.77c10.39-7.83,17-12.8,24.15-23.41,4.68-6.94,7.21-13.77,9.33-21.96-9.82-2.6-19.28-5.85-28.37-9.88h0Zm.7,27.61c4.62-5.58,8.22-11.7,10.65-18.7-3.5-1.26-7.04-2.69-11.29-4.5-3.14,1.46-6.05,2.8-10.86,4.59,2.7,6.84,6.42,13.06,11.5,18.61Z"/>
  </g>
  <g id="Layer_3" data-name="Layer 3">
    <path class="cls-2" d="m102.58,74.63l-5.79-14.76h-3.73l7.99,19.35h2.96l7.99-19.35h-3.65l-5.76,14.76h0Zm12.9-14.76v19.21h3.35v-19.21h-3.35Zm11.33,5.02c0-.64.27-1.18.82-1.63.55-.45,1.32-.67,2.3-.67.88,0,1.75.17,2.61.51.86.34,1.73.83,2.61,1.47l1.81-2.55c-.99-.79-2.04-1.39-3.17-1.8-1.13-.41-2.39-.62-3.8-.62-.95,0-1.83.13-2.63.4-.81.27-1.49.64-2.06,1.14-.57.49-1.02,1.08-1.35,1.77-.32.69-.49,1.45-.49,2.29,0,.9.14,1.66.43,2.28.28.62.7,1.15,1.24,1.59.54.44,1.21.81,2.01,1.1.8.29,1.71.56,2.74.8.9.22,1.62.43,2.19.63.56.2,1,.42,1.32.65.32.23.54.48.66.75.12.27.18.59.18.93,0,.75-.31,1.34-.92,1.78-.61.44-1.44.66-2.48.66-1.21,0-2.29-.22-3.24-.65-.95-.43-1.89-1.05-2.83-1.85l-2.03,2.41c1.15,1.04,2.41,1.82,3.76,2.32,1.35.5,2.77.75,4.25.75,1.01,0,1.93-.13,2.77-.38.84-.26,1.56-.63,2.15-1.13.6-.49,1.07-1.1,1.4-1.81.33-.71.5-1.53.5-2.44,0-.8-.13-1.51-.4-2.1-.27-.59-.66-1.12-1.17-1.56-.51-.45-1.16-.83-1.94-1.14-.78-.31-1.67-.6-2.68-.85-.92-.22-1.67-.43-2.27-.63-.59-.2-1.06-.42-1.4-.66-.34-.24-.57-.49-.7-.77-.13-.27-.19-.6-.19-.99h0Zm14.93-5.02v19.21h3.35v-19.21h-3.35Zm27.75,9.58c0-1.35-.25-2.63-.74-3.84-.49-1.21-1.18-2.26-2.06-3.16-.88-.9-1.93-1.61-3.16-2.13-1.23-.52-2.58-.78-4.06-.78s-2.84.27-4.06.8c-1.23.53-2.29,1.25-3.18,2.15-.9.91-1.59,1.96-2.09,3.17-.49,1.21-.74,2.49-.74,3.84s.25,2.63.74,3.84,1.18,2.26,2.06,3.16c.88.9,1.93,1.61,3.16,2.13,1.23.52,2.58.78,4.06.78s2.84-.27,4.06-.8c1.23-.53,2.29-1.25,3.18-2.15.9-.91,1.59-1.96,2.09-3.17.49-1.21.74-2.49.74-3.84h0Zm-3.54.06c0,.93-.16,1.82-.48,2.65-.32.83-.76,1.55-1.33,2.17s-1.25,1.1-2.04,1.46-1.67.53-2.62.53-1.83-.18-2.63-.55c-.8-.37-1.5-.86-2.07-1.48-.58-.62-1.02-1.35-1.34-2.18-.32-.83-.48-1.71-.48-2.65s.16-1.82.48-2.65c.32-.83.76-1.55,1.33-2.17.57-.61,1.25-1.1,2.04-1.45.8-.36,1.67-.54,2.62-.54s1.83.18,2.63.55c.81.37,1.5.86,2.07,1.48.58.62,1.02,1.35,1.35,2.18.32.83.48,1.71.48,2.65h0Zm21.02,3.65l-10.27-13.28h-3.12v19.21h3.35v-13.67l10.57,13.67h2.82v-19.21h-3.35v13.28h0Zm32.33,4.53l-3.02-3.07c.49-.68.96-1.39,1.39-2.13.43-.74.84-1.5,1.22-2.26l-2.55-1.34c-.31.68-.64,1.33-.99,1.95-.35.62-.7,1.21-1.07,1.76l-3.29-3.35c1.28-.48,2.3-1.11,3.07-1.91.77-.8,1.15-1.83,1.15-3.12,0-.66-.12-1.27-.37-1.84-.25-.57-.59-1.06-1.04-1.48-.45-.42-.98-.75-1.61-.99-.62-.24-1.32-.36-2.09-.36-.86,0-1.63.13-2.31.4-.68.27-1.25.62-1.73,1.06-.48.44-.84.95-1.1,1.54-.26.58-.38,1.21-.38,1.87,0,.71.13,1.39.38,2.02.26.63.66,1.3,1.21,2.02-1.32.57-2.33,1.29-3.03,2.18-.7.89-1.06,1.96-1.06,3.22,0,.84.16,1.6.48,2.28s.76,1.26,1.32,1.74c.56.48,1.22.86,1.98,1.11.76.26,1.59.38,2.48.38,1.17,0,2.24-.22,3.21-.67.97-.45,1.87-1.06,2.69-1.83l2.55,2.61,2.5-1.79h0Zm-7.08-13.28c0,.71-.26,1.3-.77,1.77-.51.47-1.26.88-2.25,1.25-.53-.58-.91-1.09-1.12-1.51-.22-.42-.33-.88-.33-1.37,0-.69.21-1.26.62-1.69.41-.43.97-.65,1.66-.65.64,0,1.17.2,1.58.59.41.39.62.93.62,1.61h0Zm.11,10.46c-.55.53-1.13.94-1.73,1.24-.6.29-1.24.44-1.89.44-.93,0-1.7-.27-2.3-.8-.6-.53-.91-1.21-.91-2.03,0-.64.2-1.24.6-1.8.4-.56,1.05-1.03,1.95-1.41l4.28,4.36h0Zm18.5,4.23h13.45v-3.05h-10.1v-16.16h-3.35v19.21h0Zm31.2-19.21h-14.21v19.21h14.35v-3.05h-11v-5.13h9.63v-3.05h-9.63v-4.94h10.87v-3.05h0Zm14.11-.14h-3.13l-8.45,19.35h3.46l1.98-4.64h9.08l1.95,4.64h3.57l-8.45-19.35h0Zm1.7,11.72h-6.61l3.29-7.68,3.32,7.68h0Zm26.34,7.63l-5.19-7.27c.68-.18,1.29-.44,1.85-.78.56-.34,1.04-.75,1.44-1.23.4-.49.72-1.04.95-1.67.23-.63.34-1.35.34-2.15,0-.93-.16-1.78-.49-2.54-.33-.76-.8-1.4-1.41-1.92-.61-.52-1.36-.92-2.25-1.21-.89-.28-1.88-.43-2.98-.43h-8.56v19.21h3.35v-6.7h4.24l4.73,6.7h3.98Zm-4.03-12.94c0,.99-.36,1.78-1.08,2.37-.71.59-1.68.88-2.89.88h-4.95v-6.48h4.93c1.27,0,2.25.27,2.95.81.7.54,1.05,1.34,1.05,2.41h0Zm20.97,7.01l-10.27-13.28h-3.12v19.21h3.35v-13.67l10.57,13.67h2.82v-19.21h-3.35v13.28h0Zm8.48-13.28v19.21h3.35v-19.21h-3.35Zm21.9,13.28l-10.27-13.28h-3.12v19.21h3.35v-13.67l10.57,13.67h2.82v-19.21h-3.35v13.28h0Zm25.41,3.27v-8.07h-8.18v2.94h4.91v3.61c-.58.44-1.28.8-2.07,1.07-.8.27-1.65.4-2.57.4-.99,0-1.88-.17-2.68-.52-.8-.35-1.48-.83-2.06-1.45-.58-.61-1.02-1.34-1.33-2.19-.31-.84-.47-1.76-.47-2.75,0-.93.16-1.82.48-2.64.32-.83.76-1.55,1.32-2.17.56-.62,1.22-1.12,1.98-1.47.76-.36,1.58-.54,2.46-.54.6,0,1.16.05,1.66.15.5.1.96.24,1.39.41.42.17.82.39,1.21.64.38.26.76.54,1.12.85l2.14-2.55c-.49-.42-1-.79-1.52-1.11-.52-.32-1.07-.59-1.66-.81-.58-.22-1.22-.39-1.91-.51-.69-.12-1.45-.18-2.29-.18-1.45,0-2.78.27-3.99.8-1.22.53-2.26,1.25-3.14,2.15-.88.91-1.56,1.96-2.04,3.17-.49,1.21-.73,2.49-.73,3.84s.24,2.72.71,3.92c.48,1.21,1.15,2.26,2.02,3.14.87.89,1.92,1.58,3.14,2.09s2.59.75,4.09.75c.84,0,1.65-.08,2.41-.23s1.49-.37,2.15-.65c.67-.27,1.29-.59,1.87-.96.58-.37,1.1-.75,1.58-1.15h0Zm12.62,2.66h13.45v-3.05h-10.1v-16.16h-3.35v19.21h0Zm26.92-19.35h-3.13l-8.45,19.35h3.46l1.98-4.64h9.08l1.95,4.64h3.57l-8.45-19.35h0Zm1.7,11.72h-6.61l3.29-7.68,3.32,7.68h0Zm18.65-11.58h-8.6v19.21h8.88c1.06,0,2.03-.11,2.9-.34.87-.23,1.62-.57,2.25-1.01.62-.45,1.1-1,1.44-1.66.34-.66.51-1.41.51-2.27,0-.66-.09-1.24-.27-1.74-.18-.5-.44-.94-.78-1.3-.33-.37-.74-.68-1.2-.95-.47-.26-.98-.49-1.54-.7.34-.18.69-.4,1.02-.66.33-.26.63-.55.87-.89.24-.34.44-.74.59-1.19.16-.46.23-.98.23-1.57,0-1.52-.57-2.72-1.7-3.6-1.13-.88-2.67-1.32-4.6-1.32h0Zm-.66,8.12h-4.6v-5.13h4.84c1.1,0,1.93.22,2.51.65.57.43.86,1.04.86,1.83,0,.9-.33,1.57-.98,2-.66.43-1.53.65-2.63.65h0Zm.98,8.1h-5.58v-5.27h5.34c1.33,0,2.32.23,2.97.69.64.46.97,1.1.97,1.92,0,.88-.33,1.54-.98,1.99-.66.45-1.56.67-2.71.67Z"/>
  </g>
  <g id="Layer_4" data-name="Layer 4">
    <g>
      <path class="cls-1" d="m165.19,25.81c0-1.52-.26-2.89-.78-4.1-.52-1.21-1.27-2.26-2.24-3.13-.97-.87-2.16-1.54-3.55-2.01-1.4-.46-2.95-.7-4.67-.7h-11.67v29.61h5.16v-9.52h5.89c1.64,0,3.18-.22,4.62-.65,1.44-.44,2.69-1.08,3.77-1.93,1.07-.85,1.92-1.9,2.54-3.17.62-1.27.93-2.74.93-4.4h0Zm-5.29.11c0,1.61-.57,2.91-1.72,3.88-1.14.98-2.71,1.47-4.69,1.47h-6.07v-10.7h6.07c1.95,0,3.51.44,4.67,1.34,1.16.89,1.74,2.23,1.74,4.01h0Zm35.74,19.56l-7.99-11.21c1.04-.28,2-.68,2.86-1.21.86-.52,1.6-1.16,2.22-1.9.62-.75,1.11-1.61,1.46-2.58.35-.97.53-2.08.53-3.32,0-1.44-.25-2.74-.76-3.91-.51-1.17-1.23-2.16-2.18-2.96s-2.1-1.42-3.47-1.86c-1.37-.44-2.9-.66-4.59-.66h-13.2v29.61h5.16v-10.32h6.54l7.3,10.32h6.13Zm-6.22-19.94c0,1.53-.55,2.75-1.66,3.65-1.1.91-2.59,1.36-4.45,1.36h-7.63v-9.98h7.59c1.95,0,3.47.42,4.54,1.25,1.08.83,1.61,2.07,1.61,3.72h0Zm11.97-9.66v29.61h5.16V15.87h-5.16Zm33.75,20.47l-15.83-20.47h-4.81v29.61h5.16v-21.06l16.29,21.06h4.35V15.87h-5.16v20.47h0Zm38.53,4.4l-3.34-3.38c-1.27,1.18-2.55,2.12-3.85,2.81-1.3.69-2.85,1.04-4.65,1.04-1.41,0-2.71-.28-3.91-.82-1.2-.55-2.24-1.3-3.11-2.26-.87-.96-1.55-2.08-2.03-3.36-.48-1.28-.72-2.66-.72-4.12s.24-2.83.72-4.1,1.16-2.38,2.03-3.32c.87-.95,1.91-1.69,3.11-2.24,1.2-.55,2.5-.82,3.91-.82,1.69,0,3.2.34,4.53,1.01,1.33.68,2.58,1.56,3.77,2.66l3.34-3.85c-.7-.68-1.45-1.3-2.24-1.86-.79-.56-1.65-1.05-2.58-1.46-.93-.41-1.95-.73-3.07-.95-1.11-.23-2.35-.34-3.7-.34-2.26,0-4.31.4-6.18,1.21s-3.47,1.9-4.82,3.3c-1.35,1.4-2.4,3.03-3.15,4.89-.75,1.86-1.12,3.85-1.12,5.96s.38,4.15,1.14,6.01c.76,1.86,1.81,3.47,3.15,4.84,1.34,1.37,2.93,2.45,4.76,3.24,1.83.79,3.84,1.18,6.01,1.18,1.38,0,2.64-.12,3.79-.36,1.14-.24,2.19-.59,3.15-1.06.96-.47,1.85-1.02,2.69-1.65.83-.64,1.63-1.36,2.39-2.18h0Zm27.37-24.87h-21.91v29.61h22.12v-4.7h-16.96v-7.91h14.85v-4.69h-14.85v-7.61h16.75v-4.69h0Zm18.95,4.82h9.39v-4.82h-24.03v4.82h9.39v24.79h5.24v-24.79h0Zm42.93,9.94c0-2.09-.38-4.06-1.14-5.92-.76-1.86-1.82-3.48-3.17-4.86-1.35-1.38-2.98-2.47-4.86-3.28-1.89-.8-3.98-1.21-6.26-1.21s-4.37.41-6.26,1.23c-1.89.82-3.52,1.93-4.91,3.32-1.38,1.4-2.45,3.02-3.21,4.89-.76,1.86-1.14,3.84-1.14,5.92s.38,4.06,1.14,5.92c.76,1.86,1.82,3.48,3.17,4.86,1.35,1.38,2.98,2.47,4.86,3.28,1.89.8,3.98,1.21,6.26,1.21s4.37-.41,6.26-1.23c1.89-.82,3.52-1.93,4.91-3.32,1.38-1.39,2.45-3.02,3.21-4.89.76-1.86,1.14-3.83,1.14-5.92h0Zm-5.46.08c0,1.44-.25,2.8-.74,4.08-.49,1.28-1.18,2.4-2.05,3.34-.87.94-1.92,1.69-3.15,2.24-1.23.55-2.57.82-4.04.82s-2.82-.28-4.06-.85c-1.24-.56-2.31-1.33-3.19-2.28-.89-.96-1.58-2.08-2.07-3.36-.49-1.28-.74-2.64-.74-4.08s.25-2.8.74-4.08c.49-1.28,1.18-2.4,2.05-3.34.87-.95,1.92-1.69,3.15-2.24,1.23-.55,2.57-.82,4.04-.82s2.82.28,4.06.85c1.24.56,2.31,1.33,3.19,2.28.89.96,1.58,2.08,2.07,3.36.49,1.28.74,2.64.74,4.08h0Zm32.4,5.63l-15.83-20.47h-4.82v29.61h5.16v-21.06l16.29,21.06h4.35V15.87h-5.16v20.47Z"/>
      <path class="cls-1" d="m92.72,28.87h40.43v3.6h-40.43v-3.6h0Zm311.49,0h40.43v3.6h-40.43v-3.6Z"/>
    </g>
  </g>
</svg>