<?xml version="1.0" encoding="UTF-8"?>
<svg id="Layer_2" data-name="Layer 2" xmlns="http://www.w3.org/2000/svg" viewBox="0 0 86.28 93.24">
  <defs>
    <style>
      .cls-1 {
        fill: #e87400;
        fill-rule: evenodd;
      }
    </style>
  </defs>
  <path class="cls-1" d="m45.82,60.42h0ZM4.27,28.67l6.39-8.61c3.39,21.47,8.85,35.24,24.66,50.48l10.49-10.12c5.64-6.41,10.02-13.5,12.87-21.72l8.3,2.5c-2.41,8.21-6.17,15.46-11.63,22.13-6.58,8.06-12.42,11.69-20.31,17.87-11.36-8.57-19.91-19.12-25.48-32.37-2.67-6.34-4.42-13.59-5.29-20.17h0Zm-4.27-.98c.83,7.86,2.82,15.5,5.86,22.7,5.54,13.15,14.49,24.69,25.86,33.34h-.01s3.38,2.54,3.38,2.54h.01s10.23,6.96,10.23,6.96l2.66-1.64c20.95-12.95,34.76-35,37.7-59.35h.01s.48-4.01.48-4.01h-.01s.12-1.04.12-1.04l-7.52-13.02c-13.25-2.95-23.81-7.68-35.49-14.17C26.61,8.84,22.78,11.11,10.15,13.77L0,27.69h0Zm14.34-10.72c.17-.04,1.23-.31,1.4-.35,9.78-2.64,18.93-7.34,27.52-12.02,10.36,5.68,20.38,10.02,31.98,12.89l5.64,9.77c-14.29-2.81-24.33-6.16-37.53-12.87h-.02c-6.35,3.23-11.99,6.21-18.91,8.35,2.86,15.11,6.56,24.46,17.13,36.39l-6.1,5.97c-13.76-14.38-18.05-25.46-21.11-48.13h0Zm29.19,11.51l-1.13.53c-3.26,1.52-6.14,2.87-11.04,4.69-.88-2.67-1.63-5.42-2.26-8.24l14.26-6.55c13.37,6.69,23.96,9.94,38.36,12.62-2.95,23.8-15.81,44.28-36.37,56.98l-6.93-4.77c10.39-7.83,17-12.8,24.15-23.41,4.68-6.94,7.21-13.77,9.33-21.96-9.82-2.6-19.28-5.85-28.37-9.88h0Zm.7,27.61c4.62-5.58,8.22-11.7,10.65-18.7-3.5-1.26-7.04-2.69-11.29-4.5-3.14,1.46-6.05,2.8-10.86,4.59,2.7,6.84,6.42,13.06,11.5,18.61Z"/>
</svg>